# MagicaVoxel @ Ephtracy

# group
o 

# material
mtllib chicken.mtl
usemtl palette

# normals
vn -1 0 0
vn 1 0 0
vn 0 0 1
vn 0 0 -1
vn 0 -1 0
vn 0 1 0

# texcoords
vt 0.0917969 0.5
vt 0.958984 0.5
vt 0.994141 0.5

# verts
v -0.3 0.3 0.1
v -0.3 0.3 -0.2
v -0.3 0.5 0.1
v -0.3 0.5 -0.2
v -0.2 0 0.1
v -0.2 0 -0.1
v -0.2 0.1 0.1
v -0.2 0.1 0
v -0.2 0.2 0.2
v -0.2 0.2 0
v -0.2 0.2 -0.1
v -0.2 0.2 -0.3
v -0.2 0.3 0.3
v -0.2 0.3 0.2
v -0.2 0.3 0.1
v -0.2 0.3 -0.2
v -0.2 0.5 0.1
v -0.2 0.5 -0.2
v -0.2 0.5 -0.3
v -0.2 0.6 0.3
v -0.2 0.6 0.2
v -0.2 0.7 0.3
v -0.2 0.7 0.2
v -0.2 0.8 0.3
v -0.2 0.8 0.1
v -0.1 0.5 0.4
v -0.1 0.5 0.3
v -0.1 0.6 0.4
v -0.1 0.6 0.3
v -2.98023e-08 0 0.1
v -2.98023e-08 0 -0.1
v -2.98023e-08 0.1 0.1
v -2.98023e-08 0.1 0
v -2.98023e-08 0.2 0
v -2.98023e-08 0.2 -0.1
v -0.1 0 0.1
v -0.1 0 -0.1
v -0.1 0.1 0.1
v -0.1 0.1 0
v -0.1 0.2 0
v -0.1 0.2 -0.1
v -2.98023e-08 0.5 0.4
v -2.98023e-08 0.5 0.3
v -2.98023e-08 0.6 0.4
v -2.98023e-08 0.6 0.3
v 0.1 0 0.1
v 0.1 0 -0.1
v 0.1 0.1 0.1
v 0.1 0.1 0
v 0.1 0.2 0.2
v 0.1 0.2 0
v 0.1 0.2 -0.1
v 0.1 0.2 -0.3
v 0.1 0.3 0.3
v 0.1 0.3 0.2
v 0.1 0.3 0.1
v 0.1 0.3 -0.2
v 0.1 0.5 0.1
v 0.1 0.5 -0.2
v 0.1 0.5 -0.3
v 0.1 0.6 0.3
v 0.1 0.6 0.2
v 0.1 0.7 0.3
v 0.1 0.7 0.2
v 0.1 0.8 0.3
v 0.1 0.8 0.1
v 0.2 0.3 0.1
v 0.2 0.3 -0.2
v 0.2 0.5 0.1
v 0.2 0.5 -0.2
v -0.1 0.5 0.4
v -0.1 0.6 0.4
v -2.98023e-08 0.5 0.4
v -2.98023e-08 0.6 0.4
v -0.2 0.3 0.3
v -0.2 0.6 0.3
v -0.2 0.7 0.3
v -0.2 0.8 0.3
v -0.1 0.5 0.3
v -0.1 0.6 0.3
v -0.1 0.7 0.3
v -2.98023e-08 0.5 0.3
v -2.98023e-08 0.6 0.3
v -2.98023e-08 0.7 0.3
v 0.1 0.3 0.3
v 0.1 0.6 0.3
v 0.1 0.7 0.3
v 0.1 0.8 0.3
v -0.2 0.2 0.2
v -0.2 0.3 0.2
v 0.1 0.2 0.2
v 0.1 0.3 0.2
v -0.3 0.3 0.1
v -0.3 0.5 0.1
v -0.2 0 0.1
v -0.2 0.1 0.1
v -0.2 0.3 0.1
v -0.2 0.5 0.1
v -0.1 0 0.1
v -0.1 0.1 0.1
v -2.98023e-08 0 0.1
v -2.98023e-08 0.1 0.1
v 0.1 0 0.1
v 0.1 0.1 0.1
v 0.1 0.3 0.1
v 0.1 0.5 0.1
v 0.2 0.3 0.1
v 0.2 0.5 0.1
v -0.2 0.1 0
v -0.2 0.2 0
v -0.1 0.1 0
v -0.1 0.2 0
v -2.98023e-08 0.1 0
v -2.98023e-08 0.2 0
v 0.1 0.1 0
v 0.1 0.2 0
v -0.2 0.5 0.1
v -0.2 0.8 0.1
v 0.1 0.5 0.1
v 0.1 0.8 0.1
v -0.2 0 -0.1
v -0.2 0.2 -0.1
v -0.1 0 -0.1
v -0.1 0.2 -0.1
v -2.98023e-08 0 -0.1
v -2.98023e-08 0.2 -0.1
v 0.1 0 -0.1
v 0.1 0.2 -0.1
v -0.3 0.3 -0.2
v -0.3 0.5 -0.2
v -0.2 0.3 -0.2
v -0.2 0.5 -0.2
v 0.1 0.3 -0.2
v 0.1 0.5 -0.2
v 0.2 0.3 -0.2
v 0.2 0.5 -0.2
v -0.2 0.2 -0.3
v -0.2 0.5 -0.3
v 0.1 0.2 -0.3
v 0.1 0.5 -0.3
v -0.2 0 0.1
v -0.1 0 0.1
v -2.98023e-08 0 0.1
v 0.1 0 0.1
v -0.2 0 -0.1
v -0.1 0 -0.1
v -2.98023e-08 0 -0.1
v 0.1 0 -0.1
v -0.2 0.2 0.2
v 0.1 0.2 0.2
v -0.2 0.2 0
v -0.1 0.2 0
v -2.98023e-08 0.2 0
v 0.1 0.2 0
v -0.2 0.2 -0.1
v -0.1 0.2 -0.1
v -2.98023e-08 0.2 -0.1
v 0.1 0.2 -0.1
v -0.2 0.2 -0.3
v 0.1 0.2 -0.3
v -0.2 0.3 0.3
v 0.1 0.3 0.3
v -0.2 0.3 0.2
v 0.1 0.3 0.2
v -0.3 0.3 0.1
v -0.2 0.3 0.1
v 0.1 0.3 0.1
v 0.2 0.3 0.1
v -0.3 0.3 -0.2
v -0.2 0.3 -0.2
v 0.1 0.3 -0.2
v 0.2 0.3 -0.2
v -0.1 0.5 0.4
v -2.98023e-08 0.5 0.4
v -0.1 0.5 0.3
v -2.98023e-08 0.5 0.3
v -0.2 0.1 0.1
v -0.1 0.1 0.1
v -2.98023e-08 0.1 0.1
v 0.1 0.1 0.1
v -0.2 0.1 0
v -0.1 0.1 0
v -2.98023e-08 0.1 0
v 0.1 0.1 0
v -0.3 0.5 0.1
v -0.2 0.5 0.1
v 0.1 0.5 0.1
v 0.2 0.5 0.1
v -0.3 0.5 -0.2
v -0.2 0.5 -0.2
v 0.1 0.5 -0.2
v 0.2 0.5 -0.2
v -0.2 0.5 -0.3
v 0.1 0.5 -0.3
v -0.1 0.6 0.4
v -2.98023e-08 0.6 0.4
v -0.1 0.6 0.3
v -2.98023e-08 0.6 0.3
v -0.2 0.8 0.3
v 0.1 0.8 0.3
v -0.2 0.8 0.1
v 0.1 0.8 0.1

# faces
f 3/2/1 2/2/1 1/2/1
f 4/2/1 2/2/1 3/2/1
f 7/1/1 6/1/1 5/1/1
f 8/1/1 6/1/1 7/1/1
f 10/1/1 6/1/1 8/1/1
f 11/1/1 6/1/1 10/1/1
f 14/2/1 10/2/1 9/2/1
f 14/2/1 12/2/1 11/2/1
f 14/2/1 11/2/1 10/2/1
f 15/2/1 12/2/1 14/2/1
f 16/2/1 12/2/1 15/2/1
f 17/2/1 14/2/1 13/2/1
f 17/2/1 15/2/1 14/2/1
f 18/2/1 12/2/1 16/2/1
f 19/2/1 12/2/1 18/2/1
f 20/2/1 17/2/1 13/2/1
f 21/2/1 17/2/1 20/2/1
f 22/3/1 21/3/1 20/3/1
f 23/2/1 17/2/1 21/2/1
f 23/3/1 21/3/1 22/3/1
f 24/2/1 23/2/1 22/2/1
f 25/2/1 17/2/1 23/2/1
f 25/2/1 23/2/1 24/2/1
f 28/1/1 27/1/1 26/1/1
f 29/1/1 27/1/1 28/1/1
f 32/1/1 31/1/1 30/1/1
f 33/1/1 31/1/1 32/1/1
f 34/1/1 31/1/1 33/1/1
f 35/1/1 31/1/1 34/1/1
f 36/1/2 37/1/2 38/1/2
f 38/1/2 37/1/2 39/1/2
f 39/1/2 37/1/2 40/1/2
f 40/1/2 37/1/2 41/1/2
f 42/1/2 43/1/2 44/1/2
f 44/1/2 43/1/2 45/1/2
f 46/1/2 47/1/2 48/1/2
f 48/1/2 47/1/2 49/1/2
f 49/1/2 47/1/2 51/1/2
f 51/1/2 47/1/2 52/1/2
f 50/2/2 51/2/2 55/2/2
f 52/2/2 53/2/2 55/2/2
f 51/2/2 52/2/2 55/2/2
f 55/2/2 53/2/2 56/2/2
f 56/2/2 53/2/2 57/2/2
f 54/2/2 55/2/2 58/2/2
f 55/2/2 56/2/2 58/2/2
f 57/2/2 53/2/2 59/2/2
f 59/2/2 53/2/2 60/2/2
f 54/2/2 58/2/2 61/2/2
f 61/2/2 58/2/2 62/2/2
f 61/3/2 62/3/2 63/3/2
f 62/2/2 58/2/2 64/2/2
f 63/3/2 62/3/2 64/3/2
f 63/2/2 64/2/2 65/2/2
f 64/2/2 58/2/2 66/2/2
f 65/2/2 64/2/2 66/2/2
f 67/2/2 68/2/2 69/2/2
f 69/2/2 68/2/2 70/2/2
f 73/1/3 72/1/3 71/1/3
f 74/1/3 72/1/3 73/1/3
f 79/2/3 76/2/3 75/2/3
f 80/3/3 77/3/3 76/3/3
f 80/2/3 76/2/3 79/2/3
f 81/2/3 78/2/3 77/2/3
f 81/3/3 77/3/3 80/3/3
f 82/2/3 79/2/3 75/2/3
f 83/2/3 81/2/3 80/2/3
f 84/2/3 78/2/3 81/2/3
f 84/2/3 81/2/3 83/2/3
f 85/2/3 83/2/3 82/2/3
f 85/2/3 82/2/3 75/2/3
f 86/3/3 84/3/3 83/3/3
f 86/2/3 83/2/3 85/2/3
f 87/2/3 78/2/3 84/2/3
f 87/3/3 84/3/3 86/3/3
f 88/2/3 78/2/3 87/2/3
f 91/2/3 90/2/3 89/2/3
f 92/2/3 90/2/3 91/2/3
f 97/2/3 94/2/3 93/2/3
f 98/2/3 94/2/3 97/2/3
f 99/1/3 96/1/3 95/1/3
f 100/1/3 96/1/3 99/1/3
f 103/1/3 102/1/3 101/1/3
f 104/1/3 102/1/3 103/1/3
f 107/2/3 106/2/3 105/2/3
f 108/2/3 106/2/3 107/2/3
f 111/1/3 110/1/3 109/1/3
f 112/1/3 110/1/3 111/1/3
f 115/1/3 114/1/3 113/1/3
f 116/1/3 114/1/3 115/1/3
f 117/2/4 118/2/4 119/2/4
f 119/2/4 118/2/4 120/2/4
f 121/1/4 122/1/4 123/1/4
f 123/1/4 122/1/4 124/1/4
f 125/1/4 126/1/4 127/1/4
f 127/1/4 126/1/4 128/1/4
f 129/2/4 130/2/4 131/2/4
f 131/2/4 130/2/4 132/2/4
f 133/2/4 134/2/4 135/2/4
f 135/2/4 134/2/4 136/2/4
f 137/2/4 138/2/4 139/2/4
f 139/2/4 138/2/4 140/2/4
f 145/1/5 142/1/5 141/1/5
f 146/1/5 142/1/5 145/1/5
f 147/1/5 144/1/5 143/1/5
f 148/1/5 144/1/5 147/1/5
f 151/2/5 150/2/5 149/2/5
f 152/2/5 150/2/5 151/2/5
f 153/2/5 150/2/5 152/2/5
f 154/2/5 150/2/5 153/2/5
f 156/2/5 153/2/5 152/2/5
f 157/2/5 153/2/5 156/2/5
f 159/2/5 156/2/5 155/2/5
f 159/2/5 158/2/5 157/2/5
f 159/2/5 157/2/5 156/2/5
f 160/2/5 158/2/5 159/2/5
f 163/2/5 162/2/5 161/2/5
f 164/2/5 162/2/5 163/2/5
f 169/2/5 166/2/5 165/2/5
f 170/2/5 166/2/5 169/2/5
f 171/2/5 168/2/5 167/2/5
f 172/2/5 168/2/5 171/2/5
f 175/1/5 174/1/5 173/1/5
f 176/1/5 174/1/5 175/1/5
f 177/1/6 178/1/6 181/1/6
f 181/1/6 178/1/6 182/1/6
f 179/1/6 180/1/6 183/1/6
f 183/1/6 180/1/6 184/1/6
f 185/2/6 186/2/6 189/2/6
f 187/2/6 188/2/6 189/2/6
f 186/2/6 187/2/6 189/2/6
f 189/2/6 188/2/6 190/2/6
f 190/2/6 188/2/6 191/2/6
f 191/2/6 188/2/6 192/2/6
f 190/2/6 191/2/6 193/2/6
f 193/2/6 191/2/6 194/2/6
f 195/1/6 196/1/6 197/1/6
f 197/1/6 196/1/6 198/1/6
f 199/2/6 200/2/6 201/2/6
f 201/2/6 200/2/6 202/2/6
